<svg height="512" viewBox="0 0 512 512" width="512" xmlns="http://www.w3.org/2000/svg"><g id="Solid"><path d="m376 96h36.686l-52.686-52.686v36.686a16.019 16.019 0 0 0 16 16z"/><path d="m32 480h196.687l-196.687-196.687zm32-104a8 8 0 0 1 13.657-5.657l64 64a8 8 0 0 1 -5.657 13.657h-64a8 8 0 0 1 -8-8z"/><path d="m80 395.314v36.686h36.687z"/><path d="m475.716 200.971a14.628 14.628 0 0 0 -20.686-20.687l-3.716 3.716 20.686 20.686z"/><path d="m306.198 349.802 13.575-2.715-10.86-10.86z"/><path d="m299.834 253.373h176.333v29.255h-176.333z" transform="matrix(.707 -.707 .707 .707 -75.862 352.852)"/><path d="m192 250.801 56 24.889v-70.491l-56-24.889z"/><path d="m424 275.314-82.343 82.343a8 8 0 0 1 -4.088 2.188l-40 8a8 8 0 0 1 -9.414-9.414l8-40a8.008 8.008 0 0 1 2.188-4.088l125.657-125.657v-76.686h-48a32.036 32.036 0 0 1 -32-32v-48h-240a16.019 16.019 0 0 0 -16 16v268.686l99.314 99.314h68.686v-24a8 8 0 0 1 8-8h160zm-35.448-138.533 6.9 14.438-33.5 16-6.9-14.438zm-140.552-64.781h16v40h-16zm-112-24h16v16h-16zm-32 0h16v16h-16zm19.448 247.219-6.9-14.438 33.5-16 6.9 14.438zm26.6-128-33.5-16 6.9-14.438 33.5 16zm17.952-119.219h16v16h-16zm12.751 215.311a8 8 0 0 1 -4.751-7.311v-88a7.884 7.884 0 0 1 4.756-7.3v-.011l72-32a8.01 8.01 0 0 1 6.5 0l72 32v.011a7.884 7.884 0 0 1 4.744 7.3v88a8 8 0 0 1 -4.751 7.311l-72 32v-.006a7.968 7.968 0 0 1 -6.5.006zm83.249 96.689h-16v-40h16z"/><path d="m264 275.69 56-24.889v-70.491l-56 24.889z"/><path d="m308.302 168-52.302-23.246-52.302 23.246 52.302 23.245z"/><path d="m464 416h-16v-16h-16v16h-16v-16h-16v16h-16v-16h-16v16h-16v-16h-16v16h-16v-16h-16v16h-16v-16h-16v48h208v-48h-16z"/></g></svg>