<?xml version="1.0" encoding="iso-8859-1"?>
<!-- Generator: Adobe Illustrator 19.0.0, SVG Export Plug-In . SVG Version: 6.00 Build 0)  -->
<svg version="1.1" id="Capa_1" xmlns="http://www.w3.org/2000/svg" xmlns:xlink="http://www.w3.org/1999/xlink" x="0px" y="0px"
	 viewBox="0 0 479.735 479.735" style="enable-background:new 0 0 479.735 479.735;" xml:space="preserve">
<g>
	<g>
		<path d="M454.661,427.428c-1.484-2.225-3.982-3.56-6.656-3.56h-8v-48.72c26.112-4.572,43.575-29.446,39.003-55.559
			c-4.003-22.863-23.792-39.587-47.003-39.721h-96v-56c0-4.418-3.582-8-8-8h-64c-4.418,0-8,3.582-8,8v56h-32v-56
			c0-4.418-3.582-8-8-8h-64c-4.418,0-8,3.582-8,8v56h-32v-56c0-4.418-3.582-8-8-8h-64c-4.418,0-8,3.582-8,8v58.8
			c-24.967,8.805-38.069,36.184-29.263,61.151c5.799,16.443,20.069,28.44,37.263,31.329v48.72h-8c-2.674,0-5.172,1.335-6.656,3.56
			l-16,24c-2.452,3.675-1.461,8.643,2.215,11.095c1.315,0.877,2.86,1.345,4.441,1.345h64c4.418,0.001,8.001-3.581,8.001-7.999
			c0-1.581-0.468-3.126-1.345-4.441l-16-24c-1.484-2.225-3.982-3.56-6.656-3.56h-8v-48h368v48h-8c-2.674,0-5.172,1.335-6.656,3.56
			l-16,24c-2.452,3.675-1.461,8.643,2.215,11.095c1.315,0.877,2.86,1.345,4.441,1.345h64c4.418,0.001,8.001-3.581,8.001-7.999
			c0-1.581-0.468-3.126-1.345-4.441L454.661,427.428z M72.005,351.868c-13.255,0-24-10.745-24-24s10.745-24,24-24s24,10.745,24,24
			S85.26,351.868,72.005,351.868z M184.005,351.868c-13.255,0-24-10.745-24-24s10.745-24,24-24s24,10.745,24,24
			S197.26,351.868,184.005,351.868z M296.005,351.868c-13.255,0-24-10.745-24-24s10.745-24,24-24s24,10.745,24,24
			S309.26,351.868,296.005,351.868z M408.005,351.868c-13.255,0-24-10.745-24-24s10.745-24,24-24s24,10.745,24,24
			S421.26,351.868,408.005,351.868z"/>
	</g>
</g>
<g>
	<g>
		<rect x="64.005" y="319.868" width="16" height="16"/>
	</g>
</g>
<g>
	<g>
		<rect x="176.005" y="319.868" width="16" height="16"/>
	</g>
</g>
<g>
	<g>
		<rect x="288.005" y="319.868" width="16" height="16"/>
	</g>
</g>
<g>
	<g>
		<rect x="400.005" y="319.868" width="16" height="16"/>
	</g>
</g>
<g>
	<g>
		<path d="M452.237,124.308c-3.657-2.421-7.862-3.887-12.232-4.264h-64c-13.599,1.177-24.03,12.574-24,26.224v5.6
			c0,4.418-3.582,8-8,8h-40c-4.418,0-8,3.582-8,8s3.582,8,8,8h64c4.418,0,8,3.582,8,8v80h88v-117.6
			C464,137.441,459.584,129.2,452.237,124.308z"/>
	</g>
</g>
<g>
	<g>
		<path d="M368.005,63.868c0,21.488,26.832,40,40,40c13.168,0,40-18.512,40-40H368.005z"/>
	</g>
</g>
<g>
	<g>
		<path d="M446.573,47.868c-1.049-10.252-6.329-19.601-14.568-25.792v9.792h-16v-15.4c-5.303-0.8-10.697-0.8-16,0v15.4h-16v-9.792
			c-8.239,6.191-13.519,15.54-14.568,25.792h-9.432v8h96v-8H446.573z"/>
	</g>
</g>
<g>
	<g>
		<path d="M32.005,63.868c0,21.488,26.832,40,40,40c13.168,0,40-18.512,40-40H32.005z"/>
	</g>
</g>
<g>
	<g>
		<path d="M110.573,47.868c-1.049-10.252-6.329-19.601-14.568-25.792v9.792h-16v-15.4c-2.65-0.379-5.323-0.579-8-0.6
			c-2.677,0.021-5.35,0.221-8,0.6v15.4h-16v-9.792c-8.239,6.191-13.519,15.54-14.568,25.792h-9.432v8h96v-8H110.573z"/>
	</g>
</g>
<g>
	<g>
		<path d="M176.005,159.868h-40c-4.418,0-8-3.582-8-8v-5.6c0.043-13.659-10.392-25.071-24-26.248h-64
			c-13.608,1.177-24.043,12.589-24,26.248v117.6h104v-80c0-4.418,3.582-8,8-8h48c4.418,0,8-3.582,8-8
			S180.424,159.868,176.005,159.868z"/>
	</g>
</g>
<g>
</g>
<g>
</g>
<g>
</g>
<g>
</g>
<g>
</g>
<g>
</g>
<g>
</g>
<g>
</g>
<g>
</g>
<g>
</g>
<g>
</g>
<g>
</g>
<g>
</g>
<g>
</g>
<g>
</g>
</svg>
